<svg id="Capa_1" enable-background="new 0 0 510 510" height="512" viewBox="0 0 510 510" width="512" xmlns="http://www.w3.org/2000/svg"><g><path d="m0 32.375h510v446h-510z" fill="#c47e4e"/><path d="m255 32.375h255v446h-255z" fill="#a05f4b"/><path d="m446 6.195v497.61c-48.034-4.371-174.318-15.853-175.99-16.01-7.239-.567-9.216-8.545-14.63-8.46-3.229 0-6.398 7.692-15.67 8.46-22.49 1.86-69.59 6.36-175.71 16.01v-497.6c0-.1 1.5.236 174.33 23.75 9.18 1.25 8.72 13.93 16.67 15.02 7.52-1.03 8.41-13.89 15-14.79.411-.055 173.598-23.663 176-23.99z" fill="#f1f6ff"/><path d="m446 6.2v497.604c-48.034-4.371-174.318-15.853-175.99-16.01-7.239-.567-9.216-8.545-14.63-8.46-.591 0-.38 20.887-.38-434.36 7.52-1.03 8.41-13.89 15-14.79 39.685-5.335 176-24.084 176-23.984z" fill="#dfe5f2"/><path d="m270 351.375v136.42c-18.012-1.633-11.12-1.712-30 0v-136.42z" fill="#dfe5f2"/><path d="m255 351.375h15v136.42l-15-1.36z" fill="#c7cdde"/><path d="m270 30.185v129.19h-30v-129.19l15 2.05z" fill="#dfe5f2"/><path d="m270 30.185v129.19h-15v-127.14z" fill="#c7cdde"/><path d="m364.99 270.325c-5.45 43.612-38.869 81.789-82.77 92.67-62.933 16.375-128.263-26.534-137.21-92.62-.67-4.9 9.29-11.21 9.29-16.3 0-5.08-9.96-8.79-9.29-13.7 9.795-72.25 87.175-117.157 155.43-86.25 31.168 13.982 54.277 42.004 62.12 73.77 1.589 6.204 2.43 12.306 2.43 12.49.65 4.9-13.5 9.53-13.5 14.61 0 5.07 14.07 10.43 13.5 15.33z" fill="#9ee2f8"/><path d="m364.99 270.325c-6.43 51.455-51.792 96.05-109.99 96.05v-222c54.243 0 101.941 39.64 109.97 95.85.993 4.943-13.48 9.638-13.48 14.77 0 5.07 14.07 10.43 13.5 15.33z" fill="#8cbcff"/><path d="m127 88.375h72v30h-72z" fill="#ff415b"/><path d="m127 392.375h72v30h-72z" fill="#ff415b"/><path d="m311 392.375h72v30h-72z" fill="#c83c50"/><path d="m311 88.375h72v30h-72z" fill="#c83c50"/><path d="m364.99 240.375h-63.17c-.689-28.405-3.554-62.15-10.35-89.84-10.39-3.63-21.47-5.75-33-6.1 9.256 26.64 12.608 67.7 13.33 95.94h-33.6c.721-28.228 4.074-69.301 13.33-95.94-11.53.35-22.61 2.47-33 6.1-6.794 27.682-9.661 61.422-10.35 89.84h-63.17c-1.307 9.578-1.387 19.835 0 30h63.17c.689 28.387 3.552 62.15 10.35 89.84 10.39 3.63 21.47 5.75 33 6.1-9.256-26.64-12.608-67.7-13.33-95.94h33.6c-.721 28.228-4.074 69.301-13.33 95.94 11.53-.35 22.61-2.47 33-6.1 6.798-27.688 9.661-61.45 10.35-89.84h63.17c1.307-9.578 1.387-19.835 0-30z" fill="#8cbcff"/><path d="m364.99 270.375h-63.17c-.689 28.387-3.552 62.15-10.35 89.84-10.39 3.63-21.47 5.75-33 6.1 9.256-26.64 12.608-67.7 13.33-95.94h-16.8v-30h16.8c-.721-28.228-4.074-69.301-13.33-95.94 11.53.35 22.61 2.47 33 6.1 6.794 27.682 9.661 61.422 10.35 89.84h63.17c1.307 9.578 1.387 19.835 0 30z" fill="#7c84e8"/></g></svg>