<svg height="512" viewBox="0 0 64 64" width="512" xmlns="http://www.w3.org/2000/svg"><path d="m19 9h42v24h-42z" fill="#bc3744"/><path d="m39 25h-36l21-11h15z" fill="#dd3e46"/><path d="m3 25h4a0 0 0 0 1 0 0v34a2 2 0 0 1 -2 2 2 2 0 0 1 -2-2v-34a0 0 0 0 1 0 0z" fill="#66342e"/><path d="m3 3 21 11-21 11z" fill="#e0e0d1"/><path d="m3 3 21 11h15v-11z" fill="#2d75bb"/><path d="m19 33 20-8h-20z" fill="#99303f"/><path d="m39 9h22v12h-22z" fill="#266191"/><circle cx="10" cy="14" fill="#f9bb4b" r="3"/><path d="m27 6h2v2h-2z" fill="#87cee9"/><path d="m32 9h2v2h-2z" fill="#87cee9"/><path d="m58 30h-5v-2h3v-4h2z" fill="#dd3e46"/><path d="m58 16h-2v-2h-9v-2h11z" fill="#2d75bb"/><path d="m43 12h2v2h-2z" fill="#2d75bb"/><g fill="#32b1cc"><path d="m40 38h-26v-8h2v6h24z"/><path d="m42 36h6v2h-6z"/></g></svg>