<svg id="Capa_1" enable-background="new 0 0 512 512" height="512" viewBox="0 0 512 512" width="512" xmlns="http://www.w3.org/2000/svg"><g><g fill="#9dc6fb"><g><path d="m418.621 210.995c-4.204 0-7.612-3.408-7.612-7.611v-27.96c0-4.204 3.407-7.611 7.612-7.611s7.611 3.408 7.611 7.611v27.96c.001 4.203-3.407 7.611-7.611 7.611z"/><path d="m418.621 87.366c-4.204 0-7.612-3.408-7.612-7.611v-27.96c0-4.204 3.407-7.611 7.612-7.611s7.611 3.408 7.611 7.611v27.96c.001 4.203-3.407 7.611-7.611 7.611z"/></g><g><path d="m365.027 188.795c-1.948 0-3.896-.743-5.383-2.229-2.972-2.973-2.972-7.792 0-10.764l19.771-19.771c2.974-2.973 7.793-2.972 10.765 0 2.972 2.973 2.972 7.792 0 10.764l-19.771 19.771c-1.487 1.486-3.435 2.229-5.382 2.229z"/><path d="m452.445 101.376c-1.948 0-3.896-.743-5.383-2.229-2.972-2.973-2.972-7.792 0-10.764l19.771-19.771c2.974-2.973 7.793-2.972 10.765 0 2.972 2.973 2.972 7.792 0 10.764l-19.771 19.771c-1.486 1.486-3.435 2.229-5.382 2.229z"/></g><g><path d="m370.787 135.2h-27.959c-4.204 0-7.612-3.408-7.612-7.611 0-4.204 3.407-7.611 7.612-7.611h27.959c4.204 0 7.612 3.408 7.612 7.611-.001 4.203-3.408 7.611-7.612 7.611z"/><path d="m494.416 135.2h-27.96c-4.204 0-7.611-3.408-7.611-7.611 0-4.204 3.407-7.611 7.611-7.611h27.96c4.204 0 7.612 3.408 7.612 7.611s-3.408 7.611-7.612 7.611z"/></g><g><path d="m384.798 101.376c-1.947 0-3.896-.743-5.383-2.229l-19.771-19.771c-2.972-2.972-2.972-7.791 0-10.764 2.973-2.972 7.792-2.972 10.765 0l19.771 19.771c2.972 2.972 2.972 7.791 0 10.764-1.486 1.486-3.435 2.229-5.382 2.229z"/><path d="m472.216 188.795c-1.947 0-3.896-.743-5.383-2.229l-19.771-19.771c-2.972-2.972-2.972-7.791 0-10.764 2.973-2.972 7.792-2.972 10.765 0l19.771 19.771c2.972 2.972 2.972 7.791 0 10.764-1.486 1.486-3.435 2.229-5.382 2.229z"/></g></g><g><path d="m153.687 317.953c24.855 0 45.004-20.149 45.004-45.004 0-16.011 17.332-26.017 31.198-18.012 21.525 12.427 49.049 5.052 61.476-16.472 12.427-21.525 5.052-49.049-16.472-61.476-13.866-8.005-13.866-28.019 0-36.024 21.525-12.427 28.9-39.951 16.472-61.476-12.427-21.525-39.951-28.9-61.476-16.472-13.866 8.005-31.198-2.001-31.198-18.012 0-24.856-20.149-45.005-45.004-45.005s-45.004 20.149-45.004 45.004c0 16.011-17.332 26.017-31.198 18.012-21.525-12.427-49.049-5.052-61.476 16.472-12.427 21.525-5.052 49.049 16.472 61.476 13.866 8.005 13.866 28.019 0 36.024-21.525 12.427-28.9 39.951-16.472 61.476 12.427 21.525 39.951 28.9 61.476 16.472 13.866-8.005 31.198 2.001 31.198 18.012 0 24.856 20.149 45.005 45.004 45.005z" fill="#b1e4fa"/><g fill="#9dc6fb"><path d="m105.029 63.016c13.866 8.005 31.198-2.001 31.198-18.012 0-20.05 13.115-37.03 31.232-42.849-4.342-1.394-8.967-2.155-13.772-2.155-24.855 0-45.004 20.149-45.004 45.004 0 6.675-3.019 12.3-7.537 16.018 1.312.597 2.608 1.258 3.883 1.994z"/><path d="m43.552 238.465c-12.428-21.525-5.052-49.049 16.472-61.476 13.866-8.005 13.866-28.019 0-36.024-21.525-12.427-28.9-39.951-16.472-61.476 5.816-10.074 14.939-17.047 25.205-20.343-19.755-6.372-41.95 1.639-52.748 20.343-12.427 21.525-5.052 49.049 16.472 61.476 13.866 8.005 13.866 28.018 0 36.024-21.525 12.427-28.9 39.951-16.472 61.476 10.798 18.703 32.993 26.714 52.748 20.343-10.266-3.296-19.389-10.27-25.205-20.343z"/><path d="m136.226 272.949c0-16.011-17.332-26.017-31.198-18.012-1.274.735-2.57 1.396-3.882 1.994 4.518 3.718 7.537 9.342 7.537 16.018 0 24.855 20.149 45.004 45.004 45.004 4.805 0 9.43-.761 13.772-2.155-18.117-5.818-31.233-22.798-31.233-42.849z"/></g><g><circle cx="124.712" cy="134.559" fill="#ecbe6b" r="35.209"/><path d="m135.033 168.236c-3.257.996-6.73 1.534-10.319 1.534-19.445 0-35.211-15.766-35.211-35.211s15.766-35.211 35.211-35.211c3.589 0 7.062.538 10.319 1.534-14.402 4.415-24.874 17.821-24.874 33.676.001 15.857 10.472 29.263 24.874 33.678z" fill="#eab14d"/></g><g><circle cx="203.376" cy="168.392" fill="#ecbe6b" r="27.207"/><path d="m211.352 194.415c-2.517.77-5.2 1.186-7.974 1.186-15.026 0-27.209-12.183-27.209-27.209s12.183-27.208 27.209-27.208c2.774 0 5.457.416 7.974 1.186-11.129 3.411-19.221 13.771-19.221 26.023.001 12.251 8.092 22.61 19.221 26.022z" fill="#eab14d"/></g><path d="m147.593 244.586c-22.154 0-40.177-18.023-40.177-40.177 0-4.204 3.408-7.611 7.611-7.611s7.611 3.408 7.611 7.611c0 13.76 11.195 24.954 24.954 24.954 4.204 0 7.611 3.408 7.611 7.611.001 4.204-3.406 7.612-7.61 7.612z" fill="#ecbe6b"/></g><g><g fill="#eab14d"><path d="m367.844 292.298c-1.947 0-3.896-.743-5.383-2.229l-34.156-34.156c-2.972-2.972-2.972-7.792 0-10.764 2.973-2.972 7.792-2.972 10.765 0l34.156 34.156c2.972 2.972 2.972 7.792 0 10.764-1.486 1.486-3.434 2.229-5.382 2.229z"/><path d="m343.851 316.291c-1.947 0-3.896-.743-5.383-2.229l-34.156-34.156c-2.972-2.972-2.972-7.792 0-10.764 2.973-2.972 7.792-2.972 10.765 0l34.156 34.156c2.972 2.972 2.972 7.792 0 10.764-1.486 1.486-3.434 2.229-5.382 2.229z"/><path d="m319.858 340.284c-1.947 0-3.896-.743-5.383-2.229l-34.156-34.156c-2.972-2.972-2.972-7.792 0-10.764 2.973-2.972 7.792-2.972 10.765 0l34.156 34.156c2.972 2.972 2.972 7.792 0 10.764-1.486 1.486-3.434 2.229-5.382 2.229z"/><path d="m295.865 364.277c-1.947 0-3.896-.743-5.383-2.229l-34.156-34.156c-2.972-2.972-2.972-7.792 0-10.764 2.973-2.972 7.792-2.972 10.765 0l34.156 34.156c2.972 2.972 2.972 7.792 0 10.764-1.486 1.486-3.435 2.229-5.382 2.229z"/><path d="m271.872 388.27c-1.947 0-3.896-.743-5.383-2.229l-34.156-34.156c-2.973-2.972-2.973-7.792 0-10.764 2.972-2.972 7.792-2.972 10.764 0l34.157 34.156c2.972 2.972 2.972 7.792 0 10.764-1.486 1.486-3.435 2.229-5.382 2.229z"/><path d="m491.574 416.028c-1.947 0-3.896-.743-5.383-2.229l-34.156-34.156c-2.972-2.972-2.972-7.792 0-10.764 2.973-2.972 7.792-2.972 10.765 0l34.156 34.156c2.972 2.972 2.972 7.792 0 10.764-1.486 1.485-3.435 2.229-5.382 2.229z"/><path d="m467.581 440.021c-1.948 0-3.896-.743-5.383-2.229l-34.156-34.156c-2.972-2.972-2.972-7.792 0-10.764 2.974-2.973 7.793-2.973 10.765 0l34.156 34.156c2.972 2.972 2.972 7.792 0 10.764-1.487 1.485-3.435 2.229-5.382 2.229z"/><path d="m443.587 464.014c-1.948 0-3.896-.743-5.383-2.229l-34.156-34.156c-2.972-2.972-2.972-7.792 0-10.764 2.973-2.973 7.792-2.972 10.765 0l34.156 34.156c2.972 2.972 2.972 7.792 0 10.764-1.486 1.486-3.434 2.229-5.382 2.229z"/><path d="m419.594 488.007c-1.948 0-3.896-.743-5.383-2.229l-34.156-34.156c-2.972-2.972-2.972-7.792 0-10.764 2.973-2.973 7.792-2.972 10.765 0l34.156 34.156c2.972 2.972 2.972 7.792 0 10.764-1.486 1.486-3.434 2.229-5.382 2.229z"/><path d="m395.601 512c-1.948 0-3.896-.743-5.383-2.229l-34.156-34.156c-2.972-2.972-2.972-7.792 0-10.764 2.974-2.973 7.793-2.973 10.765 0l34.156 34.156c2.972 2.972 2.972 7.792 0 10.764-1.486 1.486-3.434 2.229-5.382 2.229z"/></g><path d="m457.418 284.687c-24.735-24.735-64.839-24.735-89.574 0l-95.972 95.972c-24.735 24.735-24.735 64.839 0 89.574 24.735 24.735 64.839 24.735 89.574 0l95.972-95.972c24.735-24.736 24.735-64.839 0-89.574z" fill="#e28086"/><path d="m284.299 479.922c-4.431-2.642-8.614-5.865-12.433-9.683-24.734-24.734-24.734-64.841 0-89.575l95.978-95.978c24.734-24.734 64.841-24.734 89.574 0 3.818 3.818 7.041 8.001 9.683 12.433-24.319-14.479-56.235-11.257-77.158 9.666l-95.978 95.978c-20.922 20.924-24.145 52.839-9.666 77.159z" fill="#dd636e"/><path d="m281.661 451.489c-1.947 0-3.896-.743-5.383-2.229-2.972-2.972-2.972-7.792 0-10.764 9.865-9.864 20.474-9.316 28.999-8.878 8.135.421 12.599.412 17.45-4.439s4.858-9.32 4.439-17.45c-.44-8.525-.987-19.135 8.877-28.999 9.863-9.863 20.474-9.316 28.998-8.875 8.127.42 12.597.414 17.447-4.437 4.851-4.85 4.858-9.319 4.438-17.448-.44-8.525-.988-19.134 8.875-28.998 9.865-9.864 20.473-9.316 28.998-8.875 8.127.42 12.597.414 17.448-4.437 2.971-2.973 7.791-2.973 10.764 0 2.972 2.973 2.972 7.792-.001 10.764-9.864 9.864-20.47 9.316-28.997 8.875-8.128-.421-12.597-.414-17.448 4.437-4.849 4.85-4.856 9.319-4.436 17.448.44 8.525.988 19.134-8.877 28.998-9.862 9.863-20.471 9.315-28.996 8.875-8.131-.42-12.599-.413-17.449 4.437-4.85 4.851-4.857 9.32-4.438 17.45.44 8.525.987 19.135-8.877 28.999-9.866 9.865-20.479 9.315-28.999 8.878-8.134-.42-12.599-.412-17.45 4.439-1.486 1.485-3.435 2.229-5.382 2.229z" fill="#f9f6f6"/></g><g><circle cx="418.621" cy="127.589" fill="#ecbe6b" r="47.834"/><path d="m432.644 173.342c-4.426 1.353-9.143 2.085-14.02 2.085-26.418 0-47.838-21.42-47.838-47.838s21.42-47.838 47.838-47.838c4.876 0 9.594.731 14.02 2.085-19.567 5.998-33.794 24.211-33.794 45.753.001 21.542 14.228 39.755 33.794 45.753z" fill="#eab14d"/></g><g><circle cx="141.615" cy="414.255" fill="#ecbe6b" r="30.765"/><path d="m150.634 443.681c-2.846.87-5.881 1.341-9.017 1.341-16.991 0-30.767-13.776-30.767-30.768 0-16.991 13.776-30.767 30.767-30.767 3.136 0 6.171.47 9.017 1.341-12.585 3.858-21.735 15.572-21.735 29.426 0 13.855 9.15 25.569 21.735 29.427z" fill="#eab14d"/></g><g><circle cx="74.233" cy="346.926" fill="#e28086" r="20.135"/><path d="m80.135 366.186c-1.863.57-3.849.878-5.901.878-11.12 0-20.137-9.016-20.137-20.137 0-11.12 9.016-20.136 20.137-20.136 2.053 0 4.039.308 5.901.878-8.236 2.525-14.225 10.191-14.225 19.259.001 9.066 5.989 16.733 14.225 19.258z" fill="#dd636e"/></g></g></svg>